<svg width="60" height="60" viewBox="0 0 60 60" fill="none" xmlns="http://www.w3.org/2000/svg">
<path d="M43 27.1227C40.3459 27.1293 37.7569 26.2709 35.5988 24.669V35.8418C35.598 37.9111 34.9881 39.9309 33.8505 41.631C32.713 43.3312 31.102 44.6307 29.233 45.3558C27.364 46.0808 25.3261 46.1969 23.3918 45.6885C21.4574 45.1801 19.7189 44.0714 18.4086 42.5107C17.0983 40.95 16.2787 39.0116 16.0594 36.9548C15.8401 34.898 16.2315 32.8208 17.1814 31.001C18.1312 29.1811 19.5942 27.7053 21.3747 26.771C23.1552 25.8366 25.1684 25.4882 27.145 25.7724V31.3919C26.2405 31.0969 25.2692 31.1058 24.3699 31.4173C23.4705 31.7288 22.6891 32.3271 22.1372 33.1266C21.5853 33.9262 21.2912 34.8861 21.2968 35.8694C21.3023 36.8526 21.6074 37.8089 22.1683 38.6016C22.7293 39.3944 23.5174 39.983 24.4202 40.2836C25.323 40.5841 26.2943 40.5811 27.1954 40.2751C28.0965 39.969 28.8813 39.3755 29.4377 38.5793C29.9941 37.7832 30.2937 36.825 30.2937 35.8418V14H35.5988C35.5951 14.4646 35.6326 14.9285 35.7109 15.386C35.8952 16.4072 36.2785 17.3786 36.8374 18.2409C37.3962 19.1032 38.1187 19.8382 38.9609 20.401C40.159 21.2225 41.5637 21.6604 43 21.6601V27.1227Z" fill="#41A56B"/>
</svg>
